HIERARCHY
ROOT Hips
{
	OFFSET	0.00	0.00	0.00
	CHANNELS 6 Xposition Yposition Zposition Zrotation Xrotation Yrotation
	JOINT LeftUpLeg
	{
		OFFSET	 0.126116	-0.014019	-0.065224
		CHANNELS 3 Zrotation Xrotation Yrotation
		JOINT LeftLeg
		{
			OFFSET	 0.000000	 0.000000	 0.569914
			CHANNELS 3 Zrotation Xrotation Yrotation
			JOINT LeftFoot
			{
				OFFSET	 0.000000	 0.000000	 0.544423
				CHANNELS 3 Zrotation Xrotation Yrotation
				JOINT LeftToeBase
				{
					OFFSET	 0.000000	 0.000000	 0.207117
					CHANNELS 3 Zrotation Xrotation Yrotation
					End Site
					{
						OFFSET	 0.000000	 0.000000	 0.207117
					}
				}
			}
		}
	}
	JOINT RightUpLeg
	{
		OFFSET	-0.124023	-0.008373	-0.065224
		CHANNELS 3 Zrotation Xrotation Yrotation
		JOINT RightLeg
		{
			OFFSET	 0.000000	 0.000000	 0.570047
			CHANNELS 3 Zrotation Xrotation Yrotation
			JOINT RightFoot
			{
				OFFSET	 0.000000	 0.000000	 0.544354
				CHANNELS 3 Zrotation Xrotation Yrotation
				JOINT RightToeBase
				{
					OFFSET	 0.000000	 0.000000	 0.207540
					CHANNELS 3 Zrotation Xrotation Yrotation
					End Site
					{
						OFFSET	 0.000000	 0.000000	 0.207540
					}
				}
			}
		}
	}
	JOINT Spine
	{
		OFFSET	 0.000184	-0.007763	 0.117403
		CHANNELS 3 Zrotation Xrotation Yrotation
		JOINT Spine1
		{
			OFFSET	 0.000000	 0.000000	 0.137269
			CHANNELS 3 Zrotation Xrotation Yrotation
			JOINT Spine2
			{
				OFFSET	 0.000000	 0.000000	 0.156879
				CHANNELS 3 Zrotation Xrotation Yrotation
				JOINT LeftShoulder
				{
					OFFSET	 0.080501	-0.002496	 0.160144
					CHANNELS 3 Zrotation Xrotation Yrotation
					JOINT LeftArm
					{
						OFFSET	 0.000000	 0.000000	 0.164363
						CHANNELS 3 Zrotation Xrotation Yrotation
						JOINT LeftForeArm
						{
							OFFSET	 0.000000	 0.000000	 0.364576
							CHANNELS 3 Zrotation Xrotation Yrotation
							JOINT LeftHand
							{
								OFFSET	 0.000000	 0.000000	 0.360812
								CHANNELS 3 Zrotation Xrotation Yrotation
								JOINT LeftHandIndex1
								{
									OFFSET	 0.000000	 0.000000	 0.086006
									CHANNELS 3 Zrotation Xrotation Yrotation
									JOINT LeftHandIndex2
									{
										OFFSET	 0.000000	 0.000000	 0.047237
										CHANNELS 3 Zrotation Xrotation Yrotation
										JOINT LeftHandIndex3
										{
											OFFSET	-0.004284	-0.000551	 0.038165
											CHANNELS 3 Zrotation Xrotation Yrotation
											End Site
											{
												OFFSET	-0.004284	-0.000551	 0.038165
											}
										}
									}
								}
							}
						}
					}
				}
				JOINT Neck
				{
					OFFSET	 0.000000	 0.000000	 0.176489
					CHANNELS 3 Zrotation Xrotation Yrotation
					JOINT Head
					{
						OFFSET	 0.000000	-0.001747	 0.077940
						CHANNELS 3 Zrotation Xrotation Yrotation
						End Site
						{
							OFFSET	 0.000000	-0.001747	 0.077940
						}
					}
				}
				JOINT RightShoulder
				{
					OFFSET	-0.080363	 0.000306	 0.159706
					CHANNELS 3 Zrotation Xrotation Yrotation
					JOINT RightArm
					{
						OFFSET	 0.000000	 0.000000	 0.164196
						CHANNELS 3 Zrotation Xrotation Yrotation
						JOINT RightForeArm
						{
							OFFSET	 0.000000	 0.000000	 0.365611
							CHANNELS 3 Zrotation Xrotation Yrotation
							JOINT RightHand
							{
								OFFSET	 0.000000	 0.000000	 0.360648
								CHANNELS 3 Zrotation Xrotation Yrotation
								JOINT RightHandIndex1
								{
									OFFSET	 0.000000	 0.000000	 0.069977
									CHANNELS 3 Zrotation Xrotation Yrotation
									JOINT RightHandIndex2
									{
										OFFSET	 0.000000	 0.000000	 0.052305
										CHANNELS 3 Zrotation Xrotation Yrotation
										JOINT RightHandIndex3
										{
											OFFSET	 0.009002	-0.000782	 0.042196
											CHANNELS 3 Zrotation Xrotation Yrotation
											End Site
											{
												OFFSET	 0.009002	-0.000782	 0.042196
											}
										}
									}
								}
							}
						}
					}
				}
			}
		}
	}
}
MOTION
Frames:    8
Frame Time: 0.03333334
-0.718599	-1.661417	 1.275030	-178.114500	 4.041084	-0.268697	 0.848164	-5.968358	 177.992600	 0.659911	-11.501420	 0.521163	-25.495770	 61.298890	 13.252500	-2.385833	 28.452760	 0.000004	-10.804870	-7.363831	-178.522400	-7.870170	-13.487220	 0.707351	 22.474280	 70.900540	-11.684200	 2.384659	 28.388700	-0.000001	-8.058582	 4.639802	 1.934576	-4.688085	-1.519115	-12.078020	 13.671690	-11.774890	 14.911320	-91.776180	 78.527400	-180.000000	-25.026960	-5.534695	-10.369620	-5.452290	-3.113668	-17.823290	 8.143925	-16.895610	-5.200028	-4.131196	 21.524690	 0.986298	-5.167839	 0.733520	 3.519257	-1.378229	 35.397820	-2.634230	 1.274848	 3.752890	-0.125151	-13.161790	-3.348120	-2.864668	 89.782120	 78.203890	 180.000000	-2.497357	-2.008159	 0.881000	-2.015809	-6.165224	 22.071570	 0.079495	 21.501670	 57.687140	 5.715225	 19.176060	-3.692089	 5.027514	 0.245388	-9.378011	-2.350882	 35.473990	 5.254307
-0.718810	-1.661234	 1.275216	-177.928800	 4.384697	-0.340110	 1.048428	-6.362444	 178.065000	 0.246207	-11.566640	 0.440990	-24.616920	 60.494190	 12.918010	-2.385833	 28.452760	 0.000004	-11.141450	-7.837872	-178.517000	-6.890483	-13.656080	 0.948173	 19.241070	 71.252170	-9.164083	 2.384659	 28.388700	-0.000001	-8.325096	 5.095336	 2.236876	-4.719362	-3.004828	-13.094020	 13.695680	-11.097360	 15.546630	-91.776240	 78.527420	-179.999900	-27.028370	-4.778748	-10.334990	-5.410180	-3.290941	-18.692080	 8.201932	-17.017690	-5.122129	-4.131196	 21.524690	 0.986298	-5.167839	 0.733520	 3.519257	-1.378229	 35.397820	-2.634230	 1.398718	 4.480566	-0.146336	-13.138980	-4.554877	-3.226350	 89.782140	 78.203870	 180.000000	-2.748545	-1.653285	 0.487509	-2.821488	-6.734217	 22.729100	-0.739813	 23.525600	 60.730220	 5.715225	 19.176060	-3.692089	 5.027514	 0.245388	-9.378011	-2.350882	 35.473990	 5.254307
-0.718637	-1.659782	 1.275643	-177.236200	 5.413584	-0.925514	 1.908897	-7.594640	 178.574200	-0.733087	-12.117930	 0.255941	-22.276500	 57.718320	 12.126680	-2.385833	 28.452760	 0.000004	-10.964600	-9.647570	-178.119000	-4.719900	-14.740820	 1.578322	 9.452815	 74.497720	-0.526077	 2.384659	 28.388700	-0.000001	-9.449764	 6.228520	 3.216908	-5.086382	-7.032418	-15.377870	 13.638380	-9.281811	 16.819040	-91.776090	 78.527400	 179.999900	-33.762280	-0.887017	-7.631382	-6.006204	-4.539689	-26.479780	 7.796586	-17.663650	-4.797518	-4.131196	 21.524690	 0.986298	-5.167839	 0.733520	 3.519257	-1.378229	 35.397820	-2.634230	 1.659483	 6.729968	 0.038384	-13.000840	-8.006819	-4.201209	 89.782160	 78.203920	 179.999900	-3.717153	 0.055881	-1.833496	-4.578255	-9.359492	 27.453580	-2.694997	 30.737230	 69.237400	 5.715225	 19.176060	-3.692089	 5.027514	 0.245388	-9.378011	-2.350882	 35.473990	 5.254307
-0.717937	-1.658749	 1.275562	-177.004400	 5.626202	-1.338704	 2.266648	-7.913419	 178.892600	-0.775226	-12.583030	 0.256421	-22.032060	 57.018940	 12.163260	-2.385833	 28.452760	 0.000004	-10.041270	-10.329960	-177.706100	-4.777122	-15.445490	 1.636541	 8.154725	 76.473600	 1.054829	 2.384659	 28.388700	-0.000001	-9.934603	 6.397913	 3.582652	-5.349702	-7.728127	-15.469760	 13.577900	-8.961766	 16.681160	-91.776180	 78.527400	-180.000000	-35.158180	 0.842771	-5.377071	-6.660748	-5.161677	-31.440110	 7.366633	-17.949890	-4.682308	-4.131196	 21.524690	 0.986298	-5.167839	 0.733520	 3.519257	-1.378229	 35.397820	-2.634230	 1.633077	 7.197754	 0.246078	-12.904550	-8.542927	-4.317696	 89.782070	 78.203920	-180.000000	-4.095784	 0.940263	-3.126732	-4.375031	-10.492480	 30.513210	-2.629243	 33.104480	 70.242850	 5.715225	 19.176060	-3.692089	 5.027514	 0.245388	-9.378011	-2.350882	 35.473990	 5.254307
-0.715846	-1.655620	 1.275212	-176.526500	 6.106473	-2.190618	 2.993548	-8.832260	 179.408100	-0.786400	-14.322190	 0.288404	-22.067540	 55.929180	 12.837330	-2.385833	 28.452760	 0.000004	-8.057510	-11.894360	-176.755600	-4.966494	-16.968640	 1.737477	 3.652097	 80.579110	 6.163941	 2.384659	 28.388700	-0.000001	-11.138690	 6.584929	 4.337784	-6.114137	-8.636345	-15.952450	 13.555980	-8.503137	 16.621390	-91.776210	 78.527420	-179.999900	-37.679180	 5.185465	 0.128809	-8.302137	-6.364185	-43.229790	 6.479379	-18.606370	-4.432747	-4.131196	 21.524690	 0.986298	-5.167839	 0.733520	 3.519257	-1.378229	 35.397820	-2.634230	 1.565391	 8.131563	 0.693566	-12.704030	-9.588233	-4.530172	 89.782100	 78.203870	 180.000000	-5.121881	 3.546013	-6.245003	-3.339804	-13.267470	 38.454890	-1.750189	 37.405890	 71.058050	 5.715225	 19.176060	-3.692089	 5.027514	 0.245388	-9.378011	-2.350882	 35.473990	 5.254307
-0.712749	-1.651243	 1.274406	-176.394700	 6.123894	-2.544795	 2.947217	-9.584463	 179.152900	 0.131936	-17.185100	 0.616003	-24.772380	 56.110410	 15.482920	-2.385833	 28.452760	 0.000004	-6.212166	-12.923260	-176.098700	-5.910723	-18.212820	 1.563045	 11.598850	 82.809610	-1.007416	 2.384659	 28.388700	-0.000001	-12.197530	 6.080193	 4.626123	-7.042399	-6.473952	-16.352730	 13.900720	-9.411880	 16.826110	-91.776250	 78.527380	-179.999900	-35.385860	 9.030638	 5.946163	-10.046810	-7.278799	-55.506600	 6.101663	-18.901880	-4.311415	-4.131196	 21.524690	 0.986298	-5.167839	 0.733520	 3.519257	-1.378229	 35.397820	-2.634230	 1.452608	 8.021880	 1.032797	-12.566790	-9.135130	-4.349077	 89.782100	 78.203920	-180.000000	-6.218729	 7.021427	-9.237220	-0.959466	-15.488100	 47.559070	 0.637874	 35.360870	 64.842610	 5.715225	 19.176060	-3.692089	 5.027514	 0.245388	-9.378011	-2.350882	 35.473990	 5.254307
-0.708750	-1.645257	 1.273378	-176.283900	 6.208241	-2.889289	 2.686822	-10.283390	 178.660200	 1.195430	-20.347000	 1.095397	-28.104650	 56.520980	 18.755040	-2.385833	 28.452760	 0.000004	-4.410578	-14.890130	-175.394700	-6.768290	-20.866770	 1.474056	 28.544060	 85.093080	-17.246730	 2.384659	 28.388700	-0.000001	-13.611610	 5.393738	 4.838639	-8.285050	-3.394998	-16.976960	 14.460720	-10.780480	 17.378110	-91.776210	 78.527360	 180.000000	-32.186070	 14.262680	 10.815570	-11.811030	-7.715742	-67.358750	 5.712013	-19.212040	-4.191454	-4.131196	 21.524690	 0.986298	-5.167839	 0.733520	 3.519257	-1.378229	 35.397820	-2.634230	 1.367044	 7.936387	 1.329214	-12.440570	-8.765606	-4.200834	 89.782140	 78.203900	 179.999900	-7.622835	 12.011050	-11.677770	 1.834979	-17.357730	 57.132320	 1.444638	 31.996780	 58.955860	 5.715225	 19.176060	-3.692089	 5.027514	 0.245388	-9.378011	-2.350882	 35.473990	 5.254307
-0.704156	-1.637402	 1.272367	-176.254200	 6.405877	-3.026356	 1.668864	-10.813490	 177.742800	 2.420195	-23.589010	 1.752534	-32.354890	 56.769900	 23.074130	-2.385833	 28.452760	 0.000004	-3.876004	-17.300590	-174.791900	-6.930293	-23.463530	 1.582859	 38.572580	 84.223320	-27.307900	 2.384659	 28.388700	-0.000001	-15.382830	 4.431859	 4.682466	-9.842591	 1.095994	-17.950890	 15.561740	-12.971170	 18.836260	-91.776180	 78.527420	 180.000000	-27.739550	 20.973400	 12.764790	-13.220340	-7.587013	-76.689450	 5.280826	-19.536760	-4.074292	-4.131196	 21.524690	 0.986298	-5.167839	 0.733520	 3.519257	-1.378229	 35.397820	-2.634230	 1.494747	 8.053580	 1.286868	-12.396370	-9.064049	-4.298018	 89.782160	 78.203890	 179.999900	-9.644846	 19.008230	-12.822840	 4.496806	-18.734330	 65.763350	-0.604480	 27.455170	 55.050990	 5.715225	 19.176060	-3.692089	 5.027514	 0.245388	-9.378011	-2.350882	 35.473990	 5.254307
